<svg id="Слой_1" data-name="Слой 1" xmlns="http://www.w3.org/2000/svg" viewBox="0 0 1080 1080">
  <defs>
    <style>
      .cls-1 {
        fill: #f2eee9;
      }
    </style>
  </defs>
  <title>DESIRE</title>
  <g>
    <g>
      <path class="cls-1" d="M78.52,644.33H11.76V824.47H78.52c47.42,0,90.34-35.5,90.34-90.07s-42.92-90.07-90.34-90.07m0,174.32h-45V649.89h45c35.5,0,67,28.08,67,84.51,0,56.16-31.53,84.24-67,84.24"/>
      <path class="cls-1" d="M504.73,729.9c-14.31-7.42-27.82-13-44.24-21.72-12.72-6.63-20.66-17.22-18.28-31.53,2.91-19.07,21.46-28.34,39.74-28.08,21.72.27,39.74,12.19,44,15.37l3.44-5.83c-11.13-8.48-32.58-15.37-50.07-15.37-19.87,0-49.27,8.74-56.43,35.24-5,18.28,2.38,39.74,27.29,51.13,20.13,9,28.35,12.72,41.86,19.87,16.16,8.47,28.35,22.25,24.37,42.39C513.47,808,499.16,820,477.44,820.23c-21.72,0-44.24-12.45-50.07-17l-3.44,5.83c18.28,12.45,38.68,16.69,56.69,16.69,29.41.53,51.66-16.42,56.43-39.21,4.77-22-6.89-43.71-32.32-56.69"/>
      <path class="cls-1" d="M819.71,755.07c31.53-6.36,53-23.84,53-54,0-38.68-34.17-56.69-81.33-56.69H738.91V824.47h21.72V779.61h-.19v-40.8h.19V649.89H784c35.23,0,65.44,9.27,65.44,51.12,0,34.57-20.86,46.81-48.14,50v10.6a35.09,35.09,0,0,1,9.46,7L860,818.91a19,19,0,0,0,13.52,5.56H896l-59.87-60.93a27.48,27.48,0,0,0-16.42-8.48"/>
      <g>
        <polygon class="cls-1" points="355.23 644.33 241.85 644.33 241.85 824.47 355.23 824.47 355.23 818.65 263.57 818.65 263.57 734.4 263.6 734.4 263.6 728.58 263.57 728.58 263.57 649.9 355.23 649.9 355.23 644.33"/>
        <polygon class="cls-1" points="287.31 749.97 296.9 748.47 327.03 743.84 355.23 739.06 293 739.06 287.31 749.97"/>
      </g>
      <g>
        <polygon class="cls-1" points="1068.24 644.33 954.85 644.33 954.85 824.47 1068.24 824.47 1068.24 818.65 976.57 818.65 976.57 734.4 976.6 734.4 976.6 728.58 976.57 728.58 976.57 649.9 1068.24 649.9 1068.24 644.33"/>
        <polygon class="cls-1" points="1000.31 749.97 1009.9 748.47 1040.03 743.84 1068.24 739.06 1006 739.06 1000.31 749.97"/>
      </g>
      <rect class="cls-1" x="623.59" y="644.39" width="21.83" height="180.15"/>
    </g>
    <g>
      <path class="cls-1" d="M880.72,534.36c-8.66-1.39-17.31-2.9-26-4l-52.37-4.84-26.19-2.42c-8.74-.73-17.49-1.22-26.24-1.84l-52.49-3.54c-8.74-.68-17.5-1-26.27-1.36l-26.28-1.13C610,513.37,575,513,540,512.32H540c-35,.73-69.93,1-104.84,2.91l-26.28,1.13c-8.76.39-17.52.68-26.27,1.36l-52.49,3.54c-8.74.62-17.5,1.11-26.24,1.84l-26.19,2.42-52.37,4.84c-8.7,1.09-17.36,2.6-26,4l-26,4.22q-26,4.15-51.88,8.65c35-2.07,69.9-5.28,104.85-7.31l52.24-4.83,26.12-2.41c8.71-.72,17.45-1.21,26.17-1.83l52.34-3.53c8.72-.68,17.46-1,26.19-1.36l26.2-1.13c34.8-1.86,69.64-2.18,104.47-2.9,34.83.73,69.67,1,104.47,2.9l26.2,1.13c8.74.39,17.48.68,26.19,1.36l52.34,3.53c8.72.62,17.45,1.11,26.17,1.83l26.12,2.41,52.24,4.83c35,2,69.81,5.24,104.85,7.31q-25.9-4.49-51.88-8.65Z"/>
      <path class="cls-1" d="M302.34,430.69l18.16,11.87-16.3-14.32-10.93-9.42,24.94-1.41c10.54-1.06,21-2.71,31.56-3.6l31.63-2.92,15.81-1.46c5.28-.44,10.56-.73,15.84-1.11l31.69-2.14c10.56-.73,21.15-1,31.72-1.5,21.15-1.13,42.32-1.32,63.48-1.76h.11c21.16.44,42.34.63,63.48,1.76,10.57.52,21.16.78,31.72,1.5l31.69,2.14c5.28.38,10.57.67,15.84,1.11l15.81,1.46,31.63,2.92c10.55.89,21,2.53,31.56,3.6l24.94,1.41-10.93,9.42-16.3,14.32,18.16-11.87,18-12,5.75-3.84-7.11-1.29-31.43-5.67c-5.25-.88-10.57-1.14-15.84-1.86s-10.56-1.3-15.86-1.73l-31.77-2.94-15.89-1.47c-5.3-.44-10.61-.74-15.91-1.11l-31.83-2.15c-10.61-.73-21.25-1-31.87-1.51-21.24-1.13-42.52-1.32-63.79-1.77h-.29c-21.27.45-42.55.64-63.79,1.77-10.62.52-21.26.78-31.88,1.51l-31.83,2.15c-5.3.38-10.61.67-15.91,1.11l-15.89,1.47-31.77,2.94c-5.3.43-10.58,1.11-15.86,1.73s-10.59,1-15.84,1.86l-31.43,5.67-7.11,1.29,5.75,3.84Z"/>
      <path class="cls-1" d="M321.8,368.31l16.74,10.79-14.88-13.25-9.53-8.3,22.36-1.14c9.67-1,19.28-2.49,29-3.3l29-2.68L409,349.09l14.53-1,29.07-2c9.69-.67,19.4-.9,29.1-1.38,19.4-1,38.83-1.21,58.24-1.61h.13c19.42.4,38.84.58,58.24,1.61,9.7.48,19.41.71,29.1,1.38l29.07,2,14.53,1,14.51,1.34,29,2.68c9.68.8,19.29,2.34,29,3.3l22.36,1.14-9.53,8.3L741.46,379.1l16.74-10.79,16.61-11,5.76-3.8-7.12-1.32-28.83-5.36c-4.81-.83-9.7-1-14.54-1.71s-9.69-1.19-14.56-1.59l-29.16-2.7-14.58-1.35-14.6-1-29.22-2c-9.74-.67-19.5-.91-29.25-1.39-19.5-1-39-1.21-58.56-1.62h-.31c-19.52.41-39.06.58-58.56,1.62-9.75.48-19.51.72-29.25,1.39l-29.22,2-14.6,1-14.58,1.35-29.16,2.7c-4.87.4-9.71,1-14.56,1.59s-9.72.88-14.54,1.71l-28.83,5.36-7.12,1.32,5.76,3.8Z"/>
      <path class="cls-1" d="M410.83,323.65q-6.49-6.37-13.07-12.61l11.95-.22c6.19-.6,12.34-1.61,18.55-2.11L446.84,307c6.19-.6,12.38-1.15,18.6-1.51l18.62-1.26c6.2-.43,12.42-.58,18.64-.89,12.42-.67,24.86-.78,37.29-1h0c12.43.26,24.87.37,37.29,1,6.21.3,12.43.46,18.64.89l18.62,1.26c6.21.36,12.41.91,18.6,1.51l18.58,1.72c6.2.5,12.35,1.51,18.55,2.11l11.95.22q-6.57,6.25-13.07,12.61c7.42-4.28,14.76-8.65,22.07-13.07l6-3.64-7.44-1.63-18.43-4c-3.09-.61-6.24-.62-9.34-1.1s-6.22-.76-9.34-1L634,297.42c-6.24-.6-12.48-1.16-18.74-1.52l-18.76-1.27c-6.26-.43-12.53-.59-18.79-.89-12.52-.67-25.07-.78-37.6-1h-.21c-12.54.26-25.08.38-37.6,1-6.26.3-12.53.46-18.79.89l-18.76,1.27c-6.26.37-12.5.92-18.74,1.52l-18.72,1.73c-3.12.26-6.23.66-9.34,1s-6.25.48-9.34,1.1l-18.43,4-7.44,1.63,6,3.64C396.07,315,403.41,319.38,410.83,323.65Z"/>
      <path class="cls-1" d="M278.51,476.05l26.12-2.41c8.71-.72,17.45-1.21,26.17-1.83l52.34-3.53c8.72-.68,17.46-1,26.19-1.36l26.2-1.13c34.8-1.86,69.64-2.18,104.47-2.9,34.83.72,69.67,1,104.47,2.9l26.2,1.13c8.74.39,17.48.68,26.19,1.36l52.34,3.53c8.72.62,17.45,1.11,26.17,1.83l26.12,2.41,52.24,4.83c35,2,69.81,5.24,104.85,7.31q-25.9-4.49-51.88-8.65l-26-4.22c-8.66-1.39-17.31-2.9-26-4l-52.37-4.84-26.19-2.42c-8.74-.73-17.49-1.22-26.24-1.84l-52.49-3.54c-8.74-.68-17.5-1-26.27-1.36l-26.28-1.13C610,454.33,575,454,540,453.28H540c-35,.73-69.93,1-104.84,2.91l-26.28,1.13c-8.76.39-17.52.68-26.27,1.36l-52.49,3.54c-8.74.62-17.5,1.11-26.24,1.84l-26.19,2.42-52.37,4.84c-8.7,1.09-17.36,2.6-26,4l-26,4.22q-26,4.14-51.88,8.65c35-2.07,69.9-5.28,104.85-7.31Z"/>
      <path class="cls-1" d="M599.92,257.68c-6.66-.58-13.3-1.36-20-1.76-13.28-1-26.59-1.54-39.92-1.73H540c-13.33.2-26.64.71-39.92,1.73-6.68.4-13.32,1.19-20,1.76-6.49,2.16-12.94,4.42-19.28,7.1,6.85,1.14,13.57,1.7,20.28,2.45,6.57-.57,13.12-1.34,19.69-1.73,13.06-1,26.15-1.51,39.24-1.7,13.08.19,26.18.7,39.24,1.7,6.58.39,13.13,1.17,19.69,1.73,6.7-.76,13.43-1.31,20.28-2.45C612.87,262.1,606.42,259.84,599.92,257.68Z"/>
    </g>
  </g>
</svg>
